<?xml version="1.0" encoding="UTF-8"?>
<svg xmlns="http://www.w3.org/2000/svg" xmlns:xlink="http://www.w3.org/1999/xlink" width="21px" height="19px" viewBox="0 0 20 19" version="1.1">
<g id="surface1">
<path style=" stroke:none;fill-rule:nonzero;fill:rgb(0%,0%,0%);fill-opacity:1;" d="M 9.328125 0.296875 C 9.234375 0.304688 8.9375 0.347656 8.660156 0.394531 C 6.636719 0.71875 4.746094 1.816406 3.410156 3.4375 C 1.964844 5.191406 1.207031 7.417969 1.28125 9.675781 C 1.328125 11.078125 1.585938 12.179688 2.160156 13.414062 C 3.039062 15.296875 4.402344 16.722656 6.210938 17.640625 C 7.375 18.230469 8.4375 18.503906 9.738281 18.558594 C 12.363281 18.664062 14.949219 17.488281 16.664062 15.40625 C 17.710938 14.132812 18.390625 12.625 18.683594 10.941406 C 18.769531 10.445312 18.78125 10.261719 18.785156 9.480469 C 18.789062 8.792969 18.773438 8.480469 18.71875 8.136719 C 18.265625 5.136719 16.550781 2.628906 14.035156 1.289062 C 13.128906 0.808594 12.308594 0.535156 11.289062 0.367188 C 10.929688 0.308594 9.675781 0.265625 9.328125 0.296875 Z M 11.398438 0.929688 C 14.089844 1.425781 16.289062 3.15625 17.464844 5.703125 C 18.992188 8.992188 18.335938 12.917969 15.820312 15.535156 L 15.355469 16.023438 L 15.332031 14.851562 C 15.3125 13.730469 15.304688 13.671875 15.210938 13.34375 C 15.039062 12.746094 14.8125 12.347656 14.40625 11.898438 C 13.910156 11.359375 13.335938 11.054688 12.5 10.882812 C 12.003906 10.777344 12.015625 10.792969 12.289062 10.558594 C 12.847656 10.085938 13.273438 9.382812 13.472656 8.605469 C 13.59375 8.140625 13.597656 7.253906 13.472656 6.792969 C 13.269531 5.992188 12.792969 5.25 12.183594 4.769531 C 10.902344 3.765625 9.175781 3.765625 7.894531 4.769531 C 6.574219 5.804688 6.125 7.6875 6.828125 9.253906 C 7.066406 9.792969 7.414062 10.257812 7.804688 10.578125 C 8.058594 10.789062 8.066406 10.777344 7.574219 10.882812 C 6.734375 11.054688 6.15625 11.363281 5.648438 11.917969 C 5.214844 12.398438 5.023438 12.773438 4.792969 13.589844 C 4.78125 13.644531 4.753906 14.210938 4.742188 14.851562 L 4.71875 16.023438 L 4.253906 15.535156 C 3.296875 14.542969 2.636719 13.4375 2.222656 12.144531 C 1.351562 9.414062 1.824219 6.492188 3.519531 4.148438 C 3.640625 3.976562 3.957031 3.613281 4.210938 3.34375 C 4.933594 2.597656 5.519531 2.160156 6.4375 1.691406 C 7.292969 1.253906 8.183594 0.980469 9.125 0.859375 C 9.625 0.796875 10.882812 0.835938 11.398438 0.929688 Z M 10.785156 4.652344 C 11.125 4.742188 11.652344 5.023438 11.933594 5.261719 C 12.414062 5.664062 12.816406 6.328125 12.96875 6.949219 C 13.0625 7.324219 13.0625 8.101562 12.972656 8.445312 C 12.808594 9.074219 12.597656 9.472656 12.183594 9.910156 C 11.71875 10.402344 11.136719 10.714844 10.484375 10.824219 C 9.203125 11.035156 7.898438 10.320312 7.332031 9.089844 C 7.042969 8.464844 6.957031 7.835938 7.066406 7.179688 C 7.289062 5.851562 8.226562 4.867188 9.535156 4.597656 C 9.789062 4.542969 10.488281 4.574219 10.785156 4.652344 Z M 9.160156 11.285156 C 9.734375 11.449219 10.484375 11.433594 11.058594 11.253906 L 11.292969 11.179688 L 12.070312 11.347656 C 12.945312 11.539062 13.085938 11.582031 13.414062 11.777344 C 13.890625 12.0625 14.296875 12.507812 14.53125 13.015625 C 14.78125 13.554688 14.789062 13.625 14.804688 15.09375 L 14.816406 16.429688 L 14.46875 16.667969 C 13.21875 17.519531 11.566406 18.027344 10.039062 18.027344 C 8.515625 18.027344 6.851562 17.515625 5.605469 16.667969 L 5.257812 16.429688 L 5.269531 15.09375 C 5.289062 13.625 5.292969 13.554688 5.542969 13.015625 C 5.792969 12.480469 6.242188 12 6.757812 11.722656 C 7.035156 11.574219 7.269531 11.507812 8.300781 11.277344 C 8.757812 11.171875 8.742188 11.171875 9.160156 11.285156 Z M 9.160156 11.285156 "/>
</g>
</svg>
