<?xml version="1.0" encoding="UTF-8"?>
<svg xmlns="http://www.w3.org/2000/svg" xmlns:xlink="http://www.w3.org/1999/xlink" width="16px" height="21px" viewBox="0 0 16 20" version="1.1">
<g id="surface1">
<path style=" stroke:none;fill-rule:nonzero;fill:rgb(0%,0%,0%);fill-opacity:1;" d="M 7.179688 0.539062 C 5.632812 0.875 4.488281 1.925781 4.097656 3.367188 C 4.007812 3.703125 3.988281 3.882812 3.972656 4.527344 L 3.945312 5.292969 L 2.511719 5.292969 C 1.125 5.292969 1.066406 5.296875 0.988281 5.375 C 0.90625 5.453125 0.90625 5.503906 0.90625 11.597656 C 0.90625 16.984375 0.914062 17.765625 0.96875 17.972656 C 1.160156 18.664062 1.765625 19.253906 2.46875 19.433594 C 2.722656 19.496094 3.164062 19.503906 7.9375 19.503906 C 13.652344 19.507812 13.410156 19.515625 13.902344 19.261719 C 14.207031 19.105469 14.59375 18.730469 14.757812 18.433594 C 15.027344 17.949219 15.011719 18.355469 15.011719 11.597656 C 15.011719 5.503906 15.011719 5.453125 14.929688 5.375 C 14.847656 5.296875 14.792969 5.292969 13.40625 5.292969 L 11.96875 5.292969 L 11.945312 4.488281 C 11.925781 3.542969 11.867188 3.28125 11.550781 2.648438 C 11.03125 1.605469 10.128906 0.890625 8.929688 0.574219 C 8.582031 0.480469 7.535156 0.460938 7.179688 0.539062 Z M 8.785156 1.179688 C 8.933594 1.214844 9.238281 1.324219 9.464844 1.433594 C 10.175781 1.765625 10.675781 2.242188 11.03125 2.925781 C 11.308594 3.464844 11.382812 3.820312 11.382812 4.625 L 11.382812 5.292969 L 4.570312 5.292969 L 4.585938 4.488281 C 4.601562 3.714844 4.605469 3.671875 4.730469 3.335938 C 4.910156 2.832031 5.15625 2.460938 5.5625 2.066406 C 6.101562 1.542969 6.753906 1.222656 7.484375 1.113281 C 7.804688 1.066406 8.441406 1.097656 8.785156 1.179688 Z M 3.957031 6.449219 C 3.957031 6.988281 3.949219 7.050781 3.886719 7.070312 C 3.5 7.191406 3.179688 7.453125 3.011719 7.78125 C 2.921875 7.949219 2.90625 8.039062 2.90625 8.359375 C 2.90625 8.683594 2.921875 8.769531 3.011719 8.9375 C 3.300781 9.507812 3.960938 9.808594 4.585938 9.652344 C 5.023438 9.546875 5.328125 9.308594 5.523438 8.917969 C 5.613281 8.734375 5.628906 8.640625 5.628906 8.359375 C 5.628906 8.078125 5.613281 7.984375 5.523438 7.800781 C 5.355469 7.460938 5.042969 7.203125 4.652344 7.074219 C 4.585938 7.050781 4.578125 6.988281 4.578125 6.449219 L 4.578125 5.851562 L 11.382812 5.851562 L 11.382812 7.03125 L 11.144531 7.125 C 10.425781 7.414062 10.085938 8.222656 10.410156 8.902344 C 10.898438 9.945312 12.386719 9.960938 12.914062 8.929688 C 13.027344 8.707031 13.046875 8.628906 13.046875 8.359375 C 13.046875 8.089844 13.027344 8.011719 12.910156 7.785156 C 12.753906 7.480469 12.503906 7.25 12.179688 7.121094 L 11.957031 7.03125 L 11.957031 5.851562 L 14.433594 5.851562 L 14.425781 11.851562 L 14.414062 17.855469 L 14.300781 18.082031 C 14.160156 18.375 13.839844 18.6875 13.535156 18.820312 L 13.300781 18.929688 L 2.617188 18.929688 L 2.371094 18.8125 C 2.058594 18.664062 1.78125 18.394531 1.625 18.09375 L 1.503906 17.855469 L 1.492188 11.851562 L 1.484375 5.851562 L 3.957031 5.851562 Z M 11.898438 7.609375 C 12.125 7.667969 12.390625 7.933594 12.453125 8.15625 C 12.550781 8.515625 12.378906 8.886719 12.03125 9.050781 C 11.722656 9.203125 11.441406 9.179688 11.164062 8.980469 C 11.019531 8.878906 10.84375 8.542969 10.84375 8.363281 C 10.847656 8.0625 11.101562 7.726562 11.40625 7.625 C 11.605469 7.554688 11.6875 7.550781 11.898438 7.609375 Z M 4.75 7.730469 C 5.335938 8.164062 5.0625 9.074219 4.324219 9.140625 C 4.054688 9.167969 3.800781 9.054688 3.613281 8.824219 C 3.386719 8.546875 3.425781 8.035156 3.695312 7.792969 C 3.871094 7.644531 4.015625 7.597656 4.3125 7.613281 C 4.558594 7.625 4.632812 7.644531 4.75 7.730469 Z M 4.75 7.730469 "/>
</g>
</svg>
