<?xml version="1.0" encoding="UTF-8"?>
<svg xmlns="http://www.w3.org/2000/svg" xmlns:xlink="http://www.w3.org/1999/xlink" width="21px" height="16px" viewBox="0 0 21 16" version="1.1">
<g id="surface1">
<path style=" stroke:none;fill-rule:nonzero;fill:rgb(0%,0%,0%);fill-opacity:1;" d="M 1.039062 0.730469 C 0.417969 1.0625 0.410156 1.898438 1.027344 2.226562 C 1.164062 2.300781 1.386719 2.300781 10.234375 2.300781 C 19.085938 2.300781 19.308594 2.300781 19.445312 2.226562 C 20.054688 1.902344 20.054688 1.058594 19.445312 0.738281 C 19.308594 0.664062 19.085938 0.664062 10.226562 0.664062 C 2.035156 0.667969 1.140625 0.671875 1.039062 0.730469 Z M 1.039062 0.730469 "/>
<path style=" stroke:none;fill-rule:nonzero;fill:rgb(0%,0%,0%);fill-opacity:1;" d="M 1.128906 7.070312 C 0.902344 7.152344 0.75 7.289062 0.65625 7.5 C 0.460938 7.9375 0.621094 8.402344 1.035156 8.601562 L 1.226562 8.695312 L 19.242188 8.695312 L 19.4375 8.601562 C 19.863281 8.398438 20.019531 7.921875 19.800781 7.480469 C 19.6875 7.257812 19.535156 7.121094 19.304688 7.054688 C 19.214844 7.03125 16.101562 7.015625 10.214844 7.015625 C 3 7.019531 1.238281 7.027344 1.128906 7.070312 Z M 1.128906 7.070312 "/>
<path style=" stroke:none;fill-rule:nonzero;fill:rgb(0%,0%,0%);fill-opacity:1;" d="M 1.039062 13.484375 C 0.636719 13.675781 0.460938 14.15625 0.636719 14.5625 C 0.710938 14.730469 0.933594 14.953125 1.085938 15.011719 C 1.207031 15.058594 19.261719 15.058594 19.386719 15.011719 C 19.539062 14.953125 19.761719 14.730469 19.832031 14.5625 C 20.011719 14.164062 19.824219 13.667969 19.433594 13.484375 C 19.289062 13.414062 18.902344 13.410156 10.234375 13.410156 C 1.511719 13.410156 1.1875 13.414062 1.039062 13.484375 Z M 1.039062 13.484375 "/>
</g>
</svg>
