<?xml version="1.0" encoding="UTF-8"?>
<svg xmlns="http://www.w3.org/2000/svg" xmlns:xlink="http://www.w3.org/1999/xlink" width="158px" height="28px" viewBox="0 0 156 28" version="1.1">
<g id="surface1">
<path style=" stroke:none;fill-rule:nonzero;fill:rgb(0%,0%,0%);fill-opacity:1;" d="M 36.355469 3.617188 C 34.644531 3.984375 33.394531 4.554688 32.214844 5.492188 C 30.082031 7.195312 28.726562 9.542969 28.289062 12.296875 C 28.070312 13.644531 28.203125 16.304688 28.546875 17.53125 C 29.339844 20.398438 30.890625 22.441406 33.246094 23.734375 C 34.921875 24.660156 36.355469 24.996094 38.601562 24.996094 C 42.128906 24.996094 44.257812 24.210938 46.335938 22.152344 C 48.046875 20.472656 49.097656 18.167969 49.378906 15.519531 C 49.660156 12.859375 49.023438 10.113281 47.625 7.90625 C 47.121094 7.085938 45.214844 5.246094 44.378906 4.75 C 43.558594 4.265625 42.25 3.800781 41.117188 3.609375 C 39.957031 3.402344 37.3125 3.402344 36.355469 3.617188 Z M 41.054688 7.300781 C 44.214844 8.410156 45.925781 11.449219 45.496094 15.183594 C 45.269531 17.101562 44.625 18.554688 43.515625 19.652344 C 42.378906 20.773438 41.128906 21.289062 39.3125 21.398438 C 35.914062 21.59375 33.289062 19.871094 32.394531 16.875 C 32.050781 15.703125 31.953125 13.546875 32.191406 12.417969 C 32.773438 9.726562 34.613281 7.6875 36.945312 7.171875 C 38.042969 6.925781 40.171875 7 41.054688 7.300781 Z M 41.054688 7.300781 "/>
<path style=" stroke:none;fill-rule:nonzero;fill:rgb(0%,0%,0%);fill-opacity:1;" d="M 3.335938 14.214844 L 3.335938 24.660156 L 7.207031 24.660156 L 7.226562 17.101562 L 7.261719 9.53125 L 9.238281 12.277344 C 13.335938 17.941406 14.003906 18.75 14.402344 18.523438 C 14.757812 18.339844 15.457031 17.46875 18.382812 13.578125 L 21.242188 9.769531 L 21.308594 17.1875 C 21.339844 21.269531 21.371094 24.617188 21.382812 24.628906 C 21.394531 24.652344 22.296875 24.660156 23.394531 24.660156 L 25.382812 24.660156 L 25.382812 3.769531 L 20.8125 3.769531 L 20.488281 4.230469 C 19.628906 5.472656 14.808594 12.082031 14.585938 12.351562 C 14.328125 12.652344 14.316406 12.652344 14.15625 12.4375 C 14.070312 12.320312 12.605469 10.316406 10.90625 7.992188 L 7.832031 3.769531 L 3.335938 3.769531 Z M 3.335938 14.214844 "/>
<path style=" stroke:none;fill-rule:nonzero;fill:rgb(0%,0%,0%);fill-opacity:1;" d="M 49.90625 5.601562 L 49.90625 7.429688 L 56.46875 7.429688 L 56.46875 24.660156 L 60.339844 24.660156 L 60.339844 7.429688 L 63.652344 7.410156 L 66.953125 7.375 L 66.984375 5.566406 L 67.007812 3.769531 L 49.90625 3.769531 Z M 49.90625 5.601562 "/>
<path style=" stroke:none;fill-rule:nonzero;fill:rgb(0%,0%,0%);fill-opacity:1;" d="M 74.699219 8.042969 C 70.824219 16.691406 67.4375 24.339844 67.4375 24.433594 C 67.4375 24.53125 69.09375 24.660156 70.515625 24.660156 L 71.492188 24.660156 L 72.386719 22.722656 L 73.277344 20.785156 L 84.269531 20.785156 L 85.066406 22.617188 C 85.507812 23.617188 85.917969 24.488281 85.980469 24.554688 C 86.097656 24.671875 88.753906 24.683594 89.667969 24.574219 L 90.21875 24.5 L 89.636719 23.207031 C 89.324219 22.496094 87.25 17.867188 85.035156 12.921875 L 81 3.929688 L 80.269531 3.867188 C 79.871094 3.824219 78.882812 3.789062 78.074219 3.78125 L 76.613281 3.769531 Z M 80.988281 13.277344 C 81.839844 15.21875 82.507812 16.820312 82.472656 16.855469 C 82.367188 16.960938 78.582031 17.035156 76.871094 16.960938 C 75.074219 16.886719 75.054688 16.886719 75.117188 16.648438 C 75.171875 16.445312 77.675781 10.617188 78.460938 8.882812 L 78.753906 8.238281 L 79.097656 8.992188 C 79.289062 9.402344 80.140625 11.328125 80.988281 13.277344 Z M 80.988281 13.277344 "/>
<path style=" stroke:none;fill-rule:nonzero;fill:rgb(0%,0%,0%);fill-opacity:1;" d="M 92.070312 14.214844 L 92.070312 24.660156 L 95.941406 24.660156 L 95.953125 20.589844 C 95.960938 18.363281 95.996094 15.25 96.039062 13.6875 L 96.101562 10.832031 L 101.480469 17.726562 L 106.867188 24.609375 L 108.074219 24.640625 L 109.277344 24.671875 L 109.277344 3.769531 L 105.40625 3.769531 L 105.394531 7.507812 C 105.382812 9.574219 105.339844 12.4375 105.308594 13.890625 L 105.242188 16.53125 L 100.230469 10.175781 L 95.21875 3.824219 L 93.648438 3.789062 L 92.070312 3.757812 Z M 92.070312 14.214844 "/>
<path style=" stroke:none;fill-rule:nonzero;fill:rgb(0%,0%,0%);fill-opacity:1;" d="M 112.828125 14.160156 L 112.828125 24.554688 L 116.675781 24.554688 L 116.753906 19.957031 L 116.828125 15.355469 L 117.109375 15.667969 C 117.257812 15.851562 119.011719 17.714844 121 19.816406 C 122.992188 21.914062 124.808594 23.84375 125.035156 24.089844 L 125.433594 24.554688 L 134.511719 24.554688 L 135.359375 22.667969 L 136.21875 20.785156 L 147.203125 20.785156 L 148.039062 22.667969 L 148.878906 24.554688 L 153.148438 24.554688 L 153 24.210938 C 152.925781 24.015625 151.375 20.558594 149.558594 16.53125 C 147.738281 12.503906 145.726562 8.011719 145.070312 6.558594 L 143.890625 3.910156 L 141.792969 3.824219 C 140.609375 3.78125 139.652344 3.789062 139.597656 3.84375 C 139.542969 3.898438 137.898438 7.496094 135.941406 11.847656 C 133.984375 16.195312 131.941406 20.742188 131.402344 21.949219 C 130.863281 23.144531 130.390625 24.125 130.359375 24.125 C 130.261719 24.125 125.421875 19.203125 122.796875 16.433594 L 120.355469 13.859375 L 121.035156 13.148438 C 121.398438 12.75 123.507812 10.488281 125.710938 8.097656 L 129.714844 3.769531 L 124.699219 3.769531 L 124.011719 4.542969 C 123.625 4.976562 121.863281 6.945312 120.085938 8.925781 L 116.859375 12.523438 L 116.761719 8.152344 L 116.667969 3.769531 L 112.828125 3.769531 Z M 143.640625 12.675781 L 145.492188 16.855469 L 142.847656 16.941406 C 141.394531 16.984375 139.707031 16.992188 139.101562 16.949219 L 138.003906 16.886719 L 138.253906 16.230469 C 138.574219 15.378906 141.144531 9.390625 141.449219 8.820312 C 141.566406 8.574219 141.695312 8.410156 141.726562 8.441406 C 141.757812 8.476562 142.621094 10.382812 143.640625 12.675781 Z M 143.640625 12.675781 "/>
</g>
</svg>
